<svg width="33" height="33" viewBox="0 0 33 33" fill="none" xmlns="http://www.w3.org/2000/svg">
<circle cx="16.5" cy="16.5" r="16.5" fill="#C7DCFF"/>
<path d="M21.108 8.65402C20.9579 8.39682 20.68 8.25 20.3467 8.25H16.2546C15.7661 8.25 15.2586 8.56878 15.0477 9.00847L10.7078 18.0218C10.5661 18.3158 10.5749 18.6277 10.7289 18.875C10.8841 19.1245 11.1588 19.2699 11.4845 19.2768L14.6961 19.3173L12.3712 25.1288C12.314 25.2738 12.1938 25.5776 12.408 25.8899C12.5016 26.0268 12.6623 26.1106 12.8276 26.1106H12.8652C13.1788 26.1106 13.3679 25.8727 13.4586 25.758L20.9711 16.3246C21.2917 15.9228 21.1594 15.5621 21.111 15.4572C21.0607 15.3567 20.8589 15.0273 20.347 15.0273H17.9565L21.0847 9.51557C21.2487 9.22485 21.2578 8.9101 21.108 8.65402Z" fill="#000AFF"/>
</svg>
