<svg width="19" height="18" viewBox="0 0 19 18" fill="none" xmlns="http://www.w3.org/2000/svg">
<g clip-path="url(#clip0)">
<path d="M17.7769 5.65912L9.84206 0.369224C9.57122 0.202559 9.28218 0.201033 9.00887 0.369224L1.07403 5.65912C0.870569 5.79472 0.744629 6.03697 0.744629 6.27915V11.569C0.744629 11.8112 0.870569 12.0534 1.07406 12.1891L9.0089 17.4797C9.27974 17.6464 9.56878 17.6479 9.84209 17.4797L17.7769 12.1891C17.9804 12.0535 18.1064 11.8112 18.1064 11.569V6.27915C18.1063 6.03697 17.9804 5.79472 17.7769 5.65912ZM10.1715 2.38437L16.0136 6.27915L13.4074 8.02309L10.1715 5.86254V2.38437ZM8.67947 2.38437V5.86254L5.44351 8.02309L2.83732 6.27915L8.67947 2.38437ZM2.23665 7.67429L4.10653 8.9241L2.23665 10.1739V7.67429ZM8.67947 15.4638L2.83732 11.569L5.44351 9.82511L8.67947 11.9857V15.4638ZM9.42548 10.6874L6.7902 8.9241L9.42548 7.1608L12.0608 8.9241L9.42548 10.6874ZM10.1715 15.4638V11.9857L13.4074 9.82511L16.0136 11.569L10.1715 15.4638ZM16.6143 10.1739L14.7444 8.9241L16.6143 7.67429V10.1739Z" fill="white"/>
</g>
<defs>
<clipPath id="clip0">
<rect width="17.3617" height="17.3617" fill="white" transform="translate(0.744629 0.240112)"/>
</clipPath>
</defs>
</svg>
