<svg width="19" height="19" viewBox="0 0 19 19" fill="none" xmlns="http://www.w3.org/2000/svg">
<g clip-path="url(#clip0)">
<path d="M6.67938 14.8705C6.67938 14.9405 6.59888 14.9965 6.49737 14.9965C6.38185 15.007 6.30135 14.951 6.30135 14.8705C6.30135 14.8004 6.38185 14.7444 6.48336 14.7444C6.58838 14.7339 6.67938 14.7899 6.67938 14.8705ZM5.59078 14.7129C5.56627 14.7829 5.63628 14.8635 5.74129 14.8845C5.8323 14.9195 5.93731 14.8845 5.95831 14.8144C5.97932 14.7444 5.91281 14.6639 5.8078 14.6324C5.71679 14.6079 5.61528 14.6429 5.59078 14.7129ZM7.13793 14.6534C7.03642 14.6779 6.96641 14.7444 6.97691 14.8249C6.98741 14.895 7.07842 14.9405 7.18343 14.916C7.28494 14.8915 7.35495 14.8249 7.34445 14.7549C7.33395 14.6884 7.23944 14.6429 7.13793 14.6534ZM9.44115 1.24011C4.58618 1.24011 0.872314 4.92597 0.872314 9.78095C0.872314 13.6628 3.31555 16.9847 6.8054 18.1538C7.25344 18.2343 7.41096 17.9578 7.41096 17.7302C7.41096 17.5132 7.40045 16.3161 7.40045 15.581C7.40045 15.581 4.95021 16.1061 4.43566 14.5379C4.43566 14.5379 4.03662 13.5193 3.46257 13.2568C3.46257 13.2568 2.66099 12.7072 3.51857 12.7177C3.51857 12.7177 4.39016 12.7877 4.86971 13.6208C5.63628 14.972 6.92091 14.5834 7.42146 14.3524C7.50196 13.7923 7.72949 13.4038 7.98151 13.1728C6.02482 12.9558 4.05063 12.6722 4.05063 9.3049C4.05063 8.34231 4.31665 7.85926 4.87671 7.2432C4.7857 7.01568 4.48817 6.07759 4.96772 4.86647C5.69929 4.63895 7.38295 5.81156 7.38295 5.81156C8.08302 5.61554 8.8356 5.51403 9.58117 5.51403C10.3267 5.51403 11.0793 5.61554 11.7794 5.81156C11.7794 5.81156 13.463 4.63545 14.1946 4.86647C14.6742 6.08109 14.3766 7.01568 14.2856 7.2432C14.8457 7.86276 15.1887 8.34581 15.1887 9.3049C15.1887 12.6827 13.127 12.9523 11.1703 13.1728C11.4924 13.4493 11.7654 13.9744 11.7654 14.7969C11.7654 15.9766 11.7549 17.4362 11.7549 17.7232C11.7549 17.9508 11.9159 18.2273 12.3604 18.1468C15.8608 16.9847 18.234 13.6628 18.234 9.78095C18.234 4.92597 14.2961 1.24011 9.44115 1.24011ZM4.27465 13.3128C4.22914 13.3478 4.23964 13.4283 4.29915 13.4948C4.35516 13.5508 4.43566 13.5753 4.48117 13.5298C4.52667 13.4948 4.51617 13.4143 4.45667 13.3478C4.40066 13.2918 4.32015 13.2673 4.27465 13.3128ZM3.89661 13.0293C3.87211 13.0748 3.90711 13.1308 3.97712 13.1658C4.03312 13.2008 4.10313 13.1903 4.12763 13.1413C4.15214 13.0958 4.11713 13.0398 4.04713 13.0048C3.97712 12.9838 3.92111 12.9943 3.89661 13.0293ZM5.03072 14.2754C4.97472 14.3209 4.99572 14.4259 5.07623 14.4924C5.15673 14.5729 5.25824 14.5834 5.30375 14.5274C5.34925 14.4819 5.32825 14.3769 5.25824 14.3104C5.18124 14.2299 5.07623 14.2194 5.03072 14.2754ZM4.63168 13.7608C4.57568 13.7958 4.57568 13.8869 4.63168 13.9674C4.68769 14.0479 4.7822 14.0829 4.8277 14.0479C4.88371 14.0024 4.88371 13.9114 4.8277 13.8308C4.7787 13.7503 4.68769 13.7153 4.63168 13.7608Z" fill="white"/>
</g>
<defs>
<clipPath id="clip0">
<rect width="17.3617" height="17.9218" fill="white" transform="translate(0.872314 0.960083)"/>
</clipPath>
</defs>
</svg>
