<svg width="19" height="20" viewBox="0 0 19 20" fill="none" xmlns="http://www.w3.org/2000/svg">
<g clip-path="url(#clip0)">
<path d="M9.62123 5.46434C7.15649 5.46434 5.16842 7.45241 5.16842 9.91716C5.16842 12.3819 7.15649 14.37 9.62123 14.37C12.086 14.37 14.074 12.3819 14.074 9.91716C14.074 7.45241 12.086 5.46434 9.62123 5.46434ZM9.62123 12.8121C8.02845 12.8121 6.72632 11.5138 6.72632 9.91716C6.72632 8.3205 8.02457 7.02225 9.62123 7.02225C11.2179 7.02225 12.5161 8.3205 12.5161 9.91716C12.5161 11.5138 11.214 12.8121 9.62123 12.8121ZM15.2948 5.2822C15.2948 5.85963 14.8297 6.3208 14.2562 6.3208C13.6788 6.3208 13.2176 5.85576 13.2176 5.2822C13.2176 4.70865 13.6826 4.2436 14.2562 4.2436C14.8297 4.2436 15.2948 4.70865 15.2948 5.2822ZM18.2439 6.33631C18.1781 4.94504 17.8603 3.71267 16.8411 2.69732C15.8257 1.68197 14.5933 1.36419 13.2021 1.29444C11.7682 1.21305 7.47039 1.21305 6.0365 1.29444C4.64911 1.36032 3.41674 1.6781 2.39752 2.69345C1.37829 3.7088 1.06439 4.94117 0.994631 6.33243C0.913248 7.76632 0.913248 12.0641 0.994631 13.498C1.06051 14.8893 1.37829 16.1216 2.39752 17.137C3.41674 18.1523 4.64524 18.4701 6.0365 18.5399C7.47039 18.6213 11.7682 18.6213 13.2021 18.5399C14.5933 18.474 15.8257 18.1562 16.8411 17.137C17.8564 16.1216 18.1742 14.8893 18.2439 13.498C18.3253 12.0641 18.3253 7.7702 18.2439 6.33631ZM16.3915 15.0365C16.0892 15.7961 15.5041 16.3813 14.7406 16.6874C13.5974 17.1409 10.8846 17.0362 9.62123 17.0362C8.35785 17.0362 5.64121 17.137 4.50185 16.6874C3.74228 16.3852 3.15709 15.8 2.85094 15.0365C2.39752 13.8933 2.50215 11.1805 2.50215 9.91716C2.50215 8.65378 2.40139 5.93714 2.85094 4.79778C3.15322 4.0382 3.7384 3.45302 4.50185 3.14687C5.64509 2.69345 8.35785 2.79808 9.62123 2.79808C10.8846 2.79808 13.6012 2.69732 14.7406 3.14687C15.5002 3.44915 16.0854 4.03433 16.3915 4.79778C16.8449 5.94102 16.7403 8.65378 16.7403 9.91716C16.7403 11.1805 16.8449 13.8972 16.3915 15.0365Z" fill="white"/>
</g>
<defs>
<clipPath id="clip0">
<rect width="17.3617" height="19.8419" fill="white" transform="translate(0.936279)"/>
</clipPath>
</defs>
</svg>
