<svg width="19" height="20" viewBox="0 0 19 20" fill="none" xmlns="http://www.w3.org/2000/svg">
<g clip-path="url(#clip0)">
<path d="M4.69482 17.3624H1.09537V5.77115H4.69482V17.3624ZM2.89316 4.19C1.74217 4.19 0.808594 3.23665 0.808594 2.08567C0.808594 1.5328 1.02822 1.00259 1.41915 0.611654C1.81008 0.220722 2.3403 0.00109863 2.89316 0.00109863C3.44602 0.00109863 3.97624 0.220722 4.36717 0.611654C4.7581 1.00259 4.97773 1.5328 4.97773 2.08567C4.97773 3.23665 4.04376 4.19 2.89316 4.19ZM18.1664 17.3624H14.5747V11.7199C14.5747 10.3751 14.5476 8.65056 12.7033 8.65056C10.8319 8.65056 10.5451 10.1116 10.5451 11.623V17.3624H6.94952V5.77115H10.4017V7.35231H10.4521C10.9326 6.44159 12.1065 5.4805 13.8578 5.4805C17.5006 5.4805 18.1703 7.87936 18.1703 10.9952V17.3624H18.1664Z" fill="white"/>
</g>
<defs>
<clipPath id="clip0">
<rect width="17.3617" height="19.8419" fill="white" transform="translate(0.808594)"/>
</clipPath>
</defs>
</svg>
