<svg width="18" height="18" viewBox="0 0 18 18" fill="none" xmlns="http://www.w3.org/2000/svg">
<g clip-path="url(#clip0)">
<path d="M15.577 5.38479C15.5881 5.53901 15.5881 5.69327 15.5881 5.84749C15.5881 10.5514 12.0078 15.9715 5.46409 15.9715C3.4481 15.9715 1.57534 15.3876 0 14.3741C0.286434 14.4071 0.561814 14.4182 0.859269 14.4182C2.5227 14.4182 4.05399 13.8564 5.2768 12.8979C3.71249 12.8649 2.40154 11.8404 1.94987 10.4303C2.17021 10.4633 2.39052 10.4853 2.62189 10.4853C2.94135 10.4853 3.26085 10.4413 3.55827 10.3642C1.92786 10.0337 0.705014 8.60156 0.705014 6.872V6.82795C1.1787 7.09234 1.72956 7.25758 2.31338 7.27959C1.35496 6.64063 0.727055 5.55003 0.727055 4.3162C0.727055 3.65523 0.903283 3.04934 1.21176 2.52055C2.96336 4.67974 5.59627 6.0898 8.5486 6.24406C8.49354 5.97967 8.46047 5.70429 8.46047 5.42887C8.46047 3.46795 10.0468 1.87061 12.0187 1.87061C13.0433 1.87061 13.9686 2.30024 14.6186 2.99427C15.4228 2.84005 16.1939 2.54259 16.8769 2.135C16.6125 2.96124 16.0507 3.65527 15.3126 4.09589C16.0287 4.01881 16.7227 3.82047 17.3616 3.54509C16.877 4.25011 16.2711 4.87801 15.577 5.38479Z" fill="white"/>
</g>
<defs>
<clipPath id="clip0">
<rect width="17.3617" height="17.3617" fill="white" transform="translate(0 0.240112)"/>
</clipPath>
</defs>
</svg>
